<svg xmlns="http://www.w3.org/2000/svg" width="1200" height="880" viewBox="0 0 1200 880">
<rect width="100%" height="100%" fill="#ffffff"/>
<style>text{font-family:Inter,Segoe UI,Arial,sans-serif;fill:#172033}.title{font-size:24px;font-weight:700}.panel{font-size:16px;font-weight:650}.axis{font-size:12px;fill:#526078}.legend{font-size:12px}.grid{stroke:#e4e9f0;stroke-width:1}.axisline{stroke:#8994a6;stroke-width:1}</style>
<text x="50" y="38" class="title">Validation-only inference sweep (15 candidates)</text>
<line x1="100" y1="92.00" x2="1120" y2="92.00" class="grid"/>
<text x="90" y="96.00" text-anchor="end" class="axis">1.011</text>
<line x1="100" y1="134.50" x2="1120" y2="134.50" class="grid"/>
<text x="90" y="138.50" text-anchor="end" class="axis">0.8895</text>
<line x1="100" y1="177.00" x2="1120" y2="177.00" class="grid"/>
<text x="90" y="181.00" text-anchor="end" class="axis">0.768</text>
<line x1="100" y1="219.50" x2="1120" y2="219.50" class="grid"/>
<text x="90" y="223.50" text-anchor="end" class="axis">0.6465</text>
<line x1="100" y1="262.00" x2="1120" y2="262.00" class="grid"/>
<text x="90" y="266.00" text-anchor="end" class="axis">0.525</text>
<line x1="100" y1="262" x2="1120" y2="262" class="axisline"/>
<text x="100" y="78" class="panel">Validation CMMD (lower is better)</text>
<text x="100" y="284" class="axis">15</text>
<text x="1120" y="284" text-anchor="end" class="axis">50</text>
<polyline fill="none" stroke="#2563eb" stroke-width="2.2" points="100.00,120.32 537.14,113.40 1120.00,103.72"/>
<line x1="100" y1="306" x2="122" y2="306" stroke="#2563eb" stroke-width="3"/>
<text x="129" y="310" class="legend">CFG 1.0</text>
<polyline fill="none" stroke="#dc2626" stroke-width="2.2" points="100.00,214.46 537.14,209.67 1120.00,203.87"/>
<line x1="290" y1="306" x2="312" y2="306" stroke="#dc2626" stroke-width="3"/>
<text x="319" y="310" class="legend">CFG 2.0</text>
<polyline fill="none" stroke="#059669" stroke-width="2.2" points="100.00,242.73 537.14,239.81 1120.00,235.14"/>
<line x1="480" y1="306" x2="502" y2="306" stroke="#059669" stroke-width="3"/>
<text x="509" y="310" class="legend">CFG 3.0</text>
<polyline fill="none" stroke="#7c3aed" stroke-width="2.2" points="100.00,250.28 537.14,246.73 1120.00,240.73"/>
<line x1="670" y1="306" x2="692" y2="306" stroke="#7c3aed" stroke-width="3"/>
<text x="699" y="310" class="legend">CFG 4.0</text>
<polyline fill="none" stroke="#ea580c" stroke-width="2.2" points="100.00,248.32 537.14,237.77 1120.00,231.06"/>
<line x1="860" y1="306" x2="882" y2="306" stroke="#ea580c" stroke-width="3"/>
<text x="889" y="310" class="legend">CFG 5.0</text>
<line x1="100" y1="362.00" x2="1120" y2="362.00" class="grid"/>
<text x="90" y="366.00" text-anchor="end" class="axis">0.1998</text>
<line x1="100" y1="404.50" x2="1120" y2="404.50" class="grid"/>
<text x="90" y="408.50" text-anchor="end" class="axis">0.1926</text>
<line x1="100" y1="447.00" x2="1120" y2="447.00" class="grid"/>
<text x="90" y="451.00" text-anchor="end" class="axis">0.1854</text>
<line x1="100" y1="489.50" x2="1120" y2="489.50" class="grid"/>
<text x="90" y="493.50" text-anchor="end" class="axis">0.1781</text>
<line x1="100" y1="532.00" x2="1120" y2="532.00" class="grid"/>
<text x="90" y="536.00" text-anchor="end" class="axis">0.1709</text>
<line x1="100" y1="532" x2="1120" y2="532" class="axisline"/>
<text x="100" y="348" class="panel">Validation HPSv2 (higher is better)</text>
<text x="100" y="554" class="axis">15</text>
<text x="1120" y="554" text-anchor="end" class="axis">50</text>
<polyline fill="none" stroke="#2563eb" stroke-width="2.2" points="100.00,520.28 537.14,500.20 1120.00,492.97"/>
<line x1="100" y1="576" x2="122" y2="576" stroke="#2563eb" stroke-width="3"/>
<text x="129" y="580" class="legend">CFG 1.0</text>
<polyline fill="none" stroke="#dc2626" stroke-width="2.2" points="100.00,431.43 537.14,423.04 1120.00,418.40"/>
<line x1="290" y1="576" x2="312" y2="576" stroke="#dc2626" stroke-width="3"/>
<text x="319" y="580" class="legend">CFG 2.0</text>
<polyline fill="none" stroke="#059669" stroke-width="2.2" points="100.00,395.39 537.14,388.64 1120.00,384.80"/>
<line x1="480" y1="576" x2="502" y2="576" stroke="#059669" stroke-width="3"/>
<text x="509" y="580" class="legend">CFG 3.0</text>
<polyline fill="none" stroke="#7c3aed" stroke-width="2.2" points="100.00,383.25 537.14,378.21 1120.00,376.32"/>
<line x1="670" y1="576" x2="692" y2="576" stroke="#7c3aed" stroke-width="3"/>
<text x="699" y="580" class="legend">CFG 4.0</text>
<polyline fill="none" stroke="#ea580c" stroke-width="2.2" points="100.00,381.51 537.14,373.72 1120.00,373.88"/>
<line x1="860" y1="576" x2="882" y2="576" stroke="#ea580c" stroke-width="3"/>
<text x="889" y="580" class="legend">CFG 5.0</text>
<line x1="100" y1="632.00" x2="1120" y2="632.00" class="grid"/>
<text x="90" y="636.00" text-anchor="end" class="axis">0.252</text>
<line x1="100" y1="674.50" x2="1120" y2="674.50" class="grid"/>
<text x="90" y="678.50" text-anchor="end" class="axis">0.2427</text>
<line x1="100" y1="717.00" x2="1120" y2="717.00" class="grid"/>
<text x="90" y="721.00" text-anchor="end" class="axis">0.2333</text>
<line x1="100" y1="759.50" x2="1120" y2="759.50" class="grid"/>
<text x="90" y="763.50" text-anchor="end" class="axis">0.2239</text>
<line x1="100" y1="802.00" x2="1120" y2="802.00" class="grid"/>
<text x="90" y="806.00" text-anchor="end" class="axis">0.2145</text>
<line x1="100" y1="802" x2="1120" y2="802" class="axisline"/>
<text x="100" y="618" class="panel">Validation CLIP alignment (higher is better)</text>
<text x="100" y="824" class="axis">15</text>
<text x="1120" y="824" text-anchor="end" class="axis">50</text>
<polyline fill="none" stroke="#2563eb" stroke-width="2.2" points="100.00,790.28 537.14,788.19 1120.00,788.69"/>
<line x1="100" y1="846" x2="122" y2="846" stroke="#2563eb" stroke-width="3"/>
<text x="129" y="850" class="legend">CFG 1.0</text>
<polyline fill="none" stroke="#dc2626" stroke-width="2.2" points="100.00,701.14 537.14,699.77 1120.00,701.47"/>
<line x1="290" y1="846" x2="312" y2="846" stroke="#dc2626" stroke-width="3"/>
<text x="319" y="850" class="legend">CFG 2.0</text>
<polyline fill="none" stroke="#059669" stroke-width="2.2" points="100.00,671.64 537.14,671.24 1120.00,671.62"/>
<line x1="480" y1="846" x2="502" y2="846" stroke="#059669" stroke-width="3"/>
<text x="509" y="850" class="legend">CFG 3.0</text>
<polyline fill="none" stroke="#7c3aed" stroke-width="2.2" points="100.00,668.03 537.14,664.66 1120.00,660.79"/>
<line x1="670" y1="846" x2="692" y2="846" stroke="#7c3aed" stroke-width="3"/>
<text x="699" y="850" class="legend">CFG 4.0</text>
<polyline fill="none" stroke="#ea580c" stroke-width="2.2" points="100.00,656.66 537.14,652.98 1120.00,643.72"/>
<line x1="860" y1="846" x2="882" y2="846" stroke="#ea580c" stroke-width="3"/>
<text x="889" y="850" class="legend">CFG 5.0</text>
</svg>